<?xml version="1.0" standalone="no"?><!DOCTYPE svg PUBLIC "-//W3C//DTD SVG 1.1//EN" "http://www.w3.org/Graphics/SVG/1.1/DTD/svg11.dtd"><svg class="icon" width="200px" height="200.00px" viewBox="0 0 1024 1024" version="1.1" xmlns="http://www.w3.org/2000/svg"><path d="M779.1104 921.1392H238.3872c-74.24 0-134.4512-60.2112-134.4512-134.4512V245.9648c0-74.24 60.2112-134.4512 134.4512-134.4512h540.7232c74.24 0 134.4512 60.2112 134.4512 134.4512v540.7232c0 74.24-60.2112 134.4512-134.4512 134.4512z" fill="#FF5122" /><path d="M738.7136 885.8624H249.1904c-74.24 0-134.4512-60.2112-134.4512-134.4512V261.888c0-74.24 60.2112-134.4512 134.4512-134.4512h489.5232c74.24 0 134.4512 60.2112 134.4512 134.4512v489.5232c0 74.24-60.2112 134.4512-134.4512 134.4512z" fill="#FE6A19" /><path d="M696.6784 848.9984H267.4176c-74.24 0-134.4512-60.2112-134.4512-134.4512V285.2352c0-74.24 60.2112-134.4512 134.4512-134.4512h429.312c74.24 0 134.4512 60.2112 134.4512 134.4512v429.312c0 74.24-60.2112 134.4512-134.5024 134.4512z" fill="#FC8308" /><path d="M651.2128 803.5328H267.4176c-74.24 0-134.4512-60.2112-134.4512-134.4512V285.2352c0-74.24 60.2112-134.4512 134.4512-134.4512h383.8464c74.24 0 134.4512 60.2112 134.4512 134.4512v383.8464c0 74.24-60.2112 134.4512-134.5024 134.4512z" fill="#FF9843" /><path d="M702.976 652.1344l-46.08-49.5104c27.8528-40.4992 43.008-88.832 43.008-138.1376 0-134.5024-109.4144-243.9168-243.9168-243.9168S212.0704 330.0352 212.0704 464.4864c0 134.5024 109.4144 243.9168 243.9168 243.9168 39.3728 0 77.9776-9.5232 112.6912-27.6992l48.128 51.6608a58.94656 58.94656 0 0 0 83.2512 2.9696c11.52-10.7008 18.176-25.2928 18.7392-41.0112s-5.12-30.6688-15.8208-42.1888zM455.9872 338.3808c69.5296 0 126.1568 56.576 126.1568 126.1568 0 69.5296-56.576 126.1568-126.1568 126.1568s-126.1568-56.576-126.1568-126.1568 56.576-126.1568 126.1568-126.1568z" fill="#FE6A19" /><path d="M686.08 667.8528l-59.2384-63.5904c31.232-38.0928 49.9712-86.784 49.9712-139.7248 0-121.8048-99.072-220.8768-220.8768-220.8768S235.1104 342.7328 235.1104 464.4864c0 121.8048 99.072 220.8768 220.8768 220.8768 43.008 0 83.0976-12.3904 117.0944-33.6896l60.5696 65.0752a35.7632 35.7632 0 0 0 26.2144 11.4176c8.7552 0 17.5104-3.1744 24.4224-9.6256a35.85536 35.85536 0 0 0 1.792-50.688zM306.7904 464.4864c0-82.2784 66.9184-149.1968 149.1968-149.1968s149.1968 66.9184 149.1968 149.1968-66.9184 149.1968-149.1968 149.1968-149.1968-66.9184-149.1968-149.1968z" fill="#FFEEE1" /><path d="M678.6048 674.816l-65.4848-70.2976c33.2288-37.2224 53.4528-86.3232 53.4528-140.032 0-116.1216-94.464-210.6368-210.6368-210.6368S245.3504 348.3648 245.3504 464.4864s94.464 210.6368 210.6368 210.6368c43.9808 0 84.8896-13.568 118.6816-36.7616l66.4576 71.3728a25.4208 25.4208 0 0 0 18.7392 8.1408c6.2464 0 12.4928-2.2528 17.4592-6.8608a25.63584 25.63584 0 0 0 1.28-36.1984zM296.5504 464.4864c0-87.9104 71.5264-159.4368 159.4368-159.4368s159.4368 71.5264 159.4368 159.4368-71.5264 159.4368-159.4368 159.4368-159.4368-71.5264-159.4368-159.4368z" fill="#F7F8F8" /></svg>