<?xml version="1.0" standalone="no"?><!DOCTYPE svg PUBLIC "-//W3C//DTD SVG 1.1//EN" "http://www.w3.org/Graphics/SVG/1.1/DTD/svg11.dtd"><svg class="icon" width="200px" height="200.00px" viewBox="0 0 1024 1024" version="1.1" xmlns="http://www.w3.org/2000/svg"><path d="M227.295097 1.108133h568.301673C947.112628 1.108133 1022.891867 76.887372 1022.891867 228.44585v568.259053c0 151.558478-75.779239 227.295097-227.295097 227.295097H227.295097C75.779239 1024 0 948.306002 0 796.704903V228.44585C0 76.887372 75.779239 1.108133 227.295097 1.108133z" fill="#FF5C00" /><path d="M215.659702 398.927828l-42.023808 59.45559 77.825023 44.325314s51.783901 24.378923 27.191876 69.897611c-23.356031 43.174561-136.556064 137.621577-136.556064 137.621577l101.607258 58.049113c70.068093-139.582119 65.635561-120.956963 83.323067-171.121285 18.07109-51.272455 21.906934-90.355448-8.737201-118.484975-39.594439-36.440523-43.856489-39.807542-102.672772-79.742945z m250.011821-102.033464c14.064763-26.424707 20.841422-43.600766 20.841421-43.600765L404.553733 228.44585S371.52285 345.012903 312.578706 399.354033c0 0 56.983601 35.588113 56.344294 34.522601 15.599101-16.835095 30.260551-34.522601 43.856489-53.062516 12.573046-5.966869 25.231333-11.763256 37.93224-17.389162-15.087655 29.493382-39.63706 73.733455-64.101224 101.564639l34.522601 32.647298s23.483892-24.421543 49.18405-53.914925h29.322901v54.383751H385.33189v43.472904h114.308167v104.334971l-4.30467-0.170482c-12.615666-0.681928-32.263714-2.983435-39.935404-15.982686-9.376509-15.982685-2.514609-45.348206-2.045783-63.248814H374.634146l-2.940814 1.534338s-28.726213 139.880463 83.408308 136.769167c104.974278 3.068676 165.197037-31.539166 194.051111-55.619745l11.507534 46.328477 64.783151-29.067177-43.771248-116.098227-52.63631 17.687505 9.887955 39.764922a159.912095 159.912095 0 0 1-45.859653 25.06085v-91.250478h111.495214v-43.515525h-111.495214v-54.383751h111.964039V400.206443h-198.909847c14.320486-18.838259 25.572297-36.099559 28.555731-47.138267l-34.607841-10.143678c148.660285-57.537668 231.514526-47.649713 230.747357 46.626821v248.690586s8.865063 85.539332-81.660868 79.274119l-48.885707-11.337051-11.507533 50.206942s211.312412 65.294598 228.573711-110.38708c17.2613-175.596437-4.30467-287.560476-4.30467-287.560477s-19.093982-162.08574-347.357029-61.586614z" fill="#FFFFFF" /><path d="M269.958212 235.563473a63.930742 63.930742 0 0 1 0 127.861483 63.930742 63.930742 0 0 1 0-127.861483z" fill="#FFE500" /></svg>