<?xml version="1.0" standalone="no"?><!DOCTYPE svg PUBLIC "-//W3C//DTD SVG 1.1//EN" "http://www.w3.org/Graphics/SVG/1.1/DTD/svg11.dtd"><svg class="icon" width="200px" height="200.00px" viewBox="0 0 1024 1024" version="1.1" xmlns="http://www.w3.org/2000/svg"><path d="M663.5 118.2h-294c-150.6 0-237 86.4-237 237v294c0 150.6 86.4 237 237 237h294c150.6 0 237-86.4 237-237v-294c0-150.6-86.4-237-237-237z m4.3 245.8c44.5 0 80.5 36 80.5 80.5S712.2 525 667.8 525c-21.2 0-40.6-8.3-55-21.8 15.2-20.5 23.4-45.1 23.3-71.1 0-19.3-4.6-37.8-13.1-54.5 12.8-8.6 28.2-13.6 44.8-13.6z m-240.2 28.1c15.2-33.9 49.3-57.5 88.9-57.5 40 0 74.4 24.1 89.4 58.6 5.2 11.9 8.1 25.1 8.1 38.9 0 19.5-5.7 37.7-15.6 52.9-9.4 14.5-22.6 26.4-38.1 34.2-8.7 4.4-18.2 7.5-28.2 9.1-5.1 0.8-10.3 1.2-15.6 1.2s-10.5-0.4-15.6-1.2c-10-1.6-19.5-4.7-28.2-9.1-15.8-7.9-29.1-20-38.5-34.9-9.5-15.1-15.1-33-15.1-52.2 0-14.3 3-27.8 8.5-40z m-62.5-29.7c16.8 0 32.4 5.2 45.3 14-9 17-13.7 36-13.7 55.7 0 25.6 8 49.9 22.7 70.2-14.3 13.1-33.4 21.1-54.3 21.1-44.4 0-80.4-36-80.5-80.5 0-44.5 36-80.5 80.5-80.5z m-22.5 273.9c-53.4-2.2-101.1-12.3-101.1-30.2 0-40.9 55.3-74 123.6-74 16.9 0 32.9 2 47.6 5.7-5.1 2.5-10.1 5.1-14.8 8-16.7 10.1-30 22.2-39.5 35.7-10.6 15.2-16.2 32.3-16.2 49.4 0 1.7 0.1 3.5 0.4 5.4z m318.9 5.4c-9.9 11.8-30 16.1-44.4 19.3-12.8 2.9-25.8 4.5-38.8 5.7-20.4 2.3-40.9 3.2-61.5 3.1-20.6 0.2-41.1-0.7-61.5-3.1-13-1.2-26-2.9-38.8-5.7-14.3-3.2-34.4-7.6-44.4-19.3-4.8-5.7-6.5-12-6.2-18.4-0.7-15.4 10.1-29.7 23.4-41.2 0.5-0.5 1-1 1.5-1.4 16-14.4 35.4-23.8 55.7-30.2 22.5-7.4 46.3-10.8 70-10.7h1c23.7-0.1 47.6 3.3 70 10.7 20.4 6.4 39.8 15.8 55.7 30.2 0.5 0.5 1 0.9 1.5 1.4 13.3 11.5 24 25.8 23 41.2 0.3 6.5-1.4 12.8-6.2 18.4z m28.9-5.4c0.3-1.9 0.4-3.7 0.4-5.4 0-17.1-5.6-34.1-16.2-49.3-9.5-13.6-22.8-25.7-39.5-35.8-4.1-2.5-8.4-4.8-12.8-7 14.1-3.3 29.5-5.1 45.6-5.1 68.3 0 123.6 32.6 123.6 72.9 0 17.6-47.7 27.6-101.1 29.7z" fill="#1296db" /></svg>